<svg width="128" height="128" xmlns="http://www.w3.org/2000/svg" xmlns:xlink="http://www.w3.org/1999/xlink">
 <g>
  <title>background</title>
  <rect fill="none" id="canvas_background" height="402" width="582" y="-1" x="-1"/>
 </g>
 <g>
  <title>Layer 1</title>
  <rect id="svg_1" y="-351" x="-219.984" width="727.938" opacity="0" height="1520" fill="#F4F5F5"/>
  <circle id="svg_3" r="64" fill="#56aaff" cy="64.233236" cx="63.766764"/>
  <path id="svg_4" fill="#939DAE" d="m64.18,16.05c1.895,0 3.535,1.009 4.388,2.699l1.429,2.835c2.847,5.65 8.546,9.16 14.872,9.16c1.672,0 3.333,-0.252 4.937,-0.75l3.032,-0.941c0.507,-0.158 1.016,-0.237 1.512,-0.237c1.53,0 3.005,0.777 3.946,2.078c0.541,0.747 1.345,2.31 0.661,4.386l-0.995,3.015c-2.559,7.758 0.832,16.15 8.061,19.955l2.81,1.479c1.659,0.873 2.639,2.513 2.624,4.387c-0.017,1.874 -1.026,3.496 -2.7,4.34l-2.836,1.43c-7.295,3.678 -10.832,12.009 -8.41,19.81l0.942,3.034c0.64,2.062 -0.171,3.602 -0.71,4.336c-0.944,1.281 -2.412,2.045 -3.928,2.045c-0.521,0 -1.055,-0.089 -1.588,-0.264l-3.016,-0.994c-1.689,-0.557 -3.443,-0.839 -5.214,-0.839c-6.203,0 -11.851,3.41 -14.741,8.9l-1.479,2.811c-0.864,1.641 -2.487,2.621 -4.344,2.621c-1.893,0 -3.532,-1.009 -4.385,-2.699l-1.429,-2.835c-2.847,-5.65 -8.546,-9.16 -14.872,-9.16c-1.672,0 -3.333,0.252 -4.937,0.75l-3.032,0.941c-0.507,0.158 -1.016,0.237 -1.512,0.237c-1.53,0 -3.005,-0.777 -3.946,-2.078c-0.541,-0.747 -1.345,-2.309 -0.661,-4.386l0.995,-3.015c2.559,-7.758 -0.832,-16.15 -8.061,-19.955l-2.81,-1.479c-1.659,-0.873 -2.639,-2.513 -2.624,-4.387c0.017,-1.874 1.026,-3.496 2.7,-4.34l2.836,-1.43c7.295,-3.678 10.832,-12.009 8.41,-19.81l-0.942,-3.034c-0.64,-2.063 0.171,-3.603 0.71,-4.336c0.944,-1.28 2.412,-2.045 3.927,-2.045c0.522,0 1.056,0.089 1.589,0.265l3.016,0.994c1.689,0.557 3.443,0.839 5.214,0.839c6.203,0 11.852,-3.41 14.741,-8.901l1.479,-2.811c0.864,-1.641 2.487,-2.621 4.341,-2.621m0,-1.175c-2.298,0 -4.31,1.215 -5.38,3.249l-1.479,2.811c-2.686,5.103 -7.935,8.273 -13.701,8.273c-1.646,0 -3.276,-0.263 -4.846,-0.78l-3.016,-0.994c-0.652,-0.215 -1.309,-0.324 -1.957,-0.324c-1.887,0 -3.708,0.943 -4.872,2.522c-0.671,0.912 -1.681,2.824 -0.887,5.382l0.942,3.034c2.251,7.251 -1.037,14.995 -7.817,18.413l-2.836,1.43c-2.074,1.046 -3.325,3.056 -3.345,5.379c-0.02,2.323 1.195,4.355 3.251,5.437l2.81,1.479c6.719,3.536 9.871,11.337 7.493,18.548l-0.995,3.015c-0.848,2.572 0.153,4.514 0.825,5.442c1.161,1.605 2.992,2.563 4.897,2.563c0.614,0 1.24,-0.098 1.861,-0.29l3.032,-0.941c1.49,-0.462 3.034,-0.697 4.589,-0.697c5.88,0 11.176,3.262 13.823,8.514l1.428,2.836c1.056,2.094 3.087,3.345 5.434,3.345l0.002,0c2.299,0 4.311,-1.215 5.382,-3.249l1.479,-2.811c2.686,-5.103 7.935,-8.273 13.701,-8.273c1.645,0 3.276,0.263 4.846,0.78l3.016,0.994c0.652,0.215 1.31,0.324 1.956,0.324c1.888,0 3.709,-0.943 4.873,-2.523c0.671,-0.912 1.681,-2.824 0.887,-5.381l-0.942,-3.034c-2.251,-7.251 1.037,-14.995 7.817,-18.413l2.836,-1.43c2.074,-1.046 3.325,-3.056 3.345,-5.379c0.02,-2.323 -1.195,-4.355 -3.251,-5.437l-2.81,-1.479c-6.719,-3.536 -9.871,-11.337 -7.493,-18.548l0.995,-3.015c0.848,-2.571 -0.153,-4.514 -0.825,-5.442c-1.161,-1.605 -2.992,-2.563 -4.897,-2.563c-0.614,0 -1.24,0.098 -1.861,0.29l-3.032,0.941c-1.49,0.462 -3.034,0.697 -4.589,0.697c-5.88,0 -11.176,-3.262 -13.823,-8.514l-1.429,-2.835c-1.057,-2.095 -3.088,-3.346 -5.437,-3.346l0,0z"/>
  <path id="svg_5" fill="#939DAE" d="m77.183,17.964c1.823,0.518 3.125,1.937 3.483,3.795l0.6,3.118c1.196,6.213 5.719,11.146 11.804,12.874c1.609,0.457 3.276,0.668 4.954,0.628l3.174,-0.077c0.531,-0.013 1.042,0.049 1.52,0.185c1.472,0.418 2.678,1.568 3.228,3.077c0.316,0.866 0.663,2.589 -0.562,4.399l-1.781,2.629c-4.581,6.764 -3.612,15.763 2.302,21.398l2.299,2.191c1.357,1.293 1.852,3.139 1.325,4.937c-0.528,1.798 -1.942,3.083 -3.783,3.438l-3.119,0.601c-8.022,1.545 -13.701,8.593 -13.502,16.759l0.077,3.176c0.053,2.159 -1.148,3.418 -1.868,3.977c-1.258,0.974 -2.879,1.308 -4.337,0.894c-0.501,-0.142 -0.991,-0.374 -1.456,-0.688l-2.63,-1.78c-1.473,-0.997 -3.083,-1.748 -4.786,-2.232c-5.967,-1.695 -12.332,0.043 -16.612,4.535l-2.19,2.3c-1.279,1.343 -3.108,1.842 -4.895,1.335c-1.821,-0.517 -3.122,-1.936 -3.481,-3.795l-0.6,-3.118c-1.196,-6.213 -5.719,-11.146 -11.804,-12.874c-1.609,-0.457 -3.276,-0.668 -4.954,-0.628l-3.174,0.077c-0.531,0.013 -1.042,-0.049 -1.52,-0.185c-1.472,-0.418 -2.678,-1.568 -3.228,-3.077c-0.316,-0.866 -0.663,-2.589 0.562,-4.399l1.781,-2.629c4.581,-6.764 3.612,-15.763 -2.302,-21.398l-2.299,-2.191c-1.357,-1.293 -1.852,-3.139 -1.325,-4.937c0.528,-1.798 1.942,-3.083 3.783,-3.438l3.119,-0.601c8.022,-1.545 13.701,-8.593 13.502,-16.759l-0.077,-3.176c-0.052,-2.159 1.148,-3.419 1.868,-3.977c1.258,-0.974 2.879,-1.308 4.336,-0.894c0.502,0.143 0.992,0.374 1.457,0.689l2.63,1.78c1.473,0.997 3.083,1.748 4.786,2.232c5.967,1.695 12.332,-0.043 16.612,-4.535l2.19,-2.3c1.281,-1.343 3.11,-1.842 4.893,-1.336m0.321,-1.13c-2.21,-0.628 -4.478,-0.009 -6.063,1.655l-2.191,2.3c-3.978,4.175 -9.894,5.79 -15.44,4.215c-1.584,-0.45 -3.08,-1.148 -4.448,-2.074l-2.63,-1.78c-0.568,-0.384 -1.171,-0.669 -1.794,-0.846c-1.815,-0.516 -3.824,-0.106 -5.376,1.095c-0.895,0.694 -2.388,2.258 -2.323,4.935l0.077,3.176c0.184,7.59 -5.094,14.141 -12.55,15.577l-3.119,0.601c-2.281,0.439 -4.033,2.032 -4.687,4.26c-0.653,2.229 -0.04,4.516 1.642,6.119l2.299,2.191c5.498,5.237 6.398,13.602 2.14,19.889l-1.78,2.628c-1.518,2.243 -1.086,4.384 -0.693,5.461c0.678,1.861 2.178,3.283 4.011,3.804c0.59,0.168 1.22,0.245 1.869,0.229l3.174,-0.077c1.56,-0.038 3.109,0.159 4.605,0.583c5.656,1.606 9.86,6.191 10.971,11.966l0.6,3.118c0.444,2.303 2.056,4.061 4.313,4.703l0.002,0c2.212,0.628 4.479,0.009 6.064,-1.655l2.191,-2.3c3.978,-4.175 9.894,-5.79 15.44,-4.215c1.583,0.449 3.08,1.148 4.448,2.074l2.63,1.78c0.568,0.384 1.172,0.669 1.793,0.846c1.816,0.516 3.826,0.106 5.377,-1.095c0.895,-0.694 2.388,-2.257 2.323,-4.934l-0.077,-3.176c-0.184,-7.59 5.094,-14.141 12.55,-15.577l3.119,-0.601c2.281,-0.439 4.033,-2.032 4.687,-4.26c0.653,-2.229 0.04,-4.516 -1.642,-6.119l-2.299,-2.191c-5.498,-5.237 -6.398,-13.602 -2.14,-19.889l1.78,-2.628c1.518,-2.242 1.086,-4.384 0.693,-5.461c-0.678,-1.861 -2.178,-3.283 -4.011,-3.804c-0.59,-0.168 -1.22,-0.245 -1.869,-0.229l-3.174,0.077c-1.56,0.038 -3.109,-0.159 -4.605,-0.583c-5.656,-1.606 -9.86,-6.191 -10.971,-11.966l-0.6,-3.118c-0.444,-2.304 -2.057,-4.062 -4.316,-4.704l0,0z"/>
  <path id="svg_6" fill="#939DAE" d="m88.595,23.003c1.626,0.973 2.515,2.681 2.379,4.569l-0.229,3.167c-0.458,6.31 2.63,12.248 8.058,15.497c1.435,0.859 2.99,1.495 4.621,1.892l3.085,0.75c0.516,0.125 0.994,0.318 1.42,0.573c1.313,0.786 2.18,2.209 2.319,3.809c0.08,0.918 -0.032,2.673 -1.685,4.103l-2.402,2.076c-6.179,5.343 -7.58,14.285 -3.33,21.263l1.651,2.712c0.975,1.601 0.974,3.512 -0.002,5.112c-0.977,1.599 -2.676,2.473 -4.545,2.338l-3.168,-0.229c-8.148,-0.59 -15.461,4.742 -17.389,12.68l-0.75,3.087c-0.51,2.098 -1.996,3.003 -2.836,3.356c-1.468,0.614 -3.12,0.516 -4.421,-0.262c-0.447,-0.267 -0.86,-0.618 -1.227,-1.043l-2.077,-2.402c-1.163,-1.345 -2.524,-2.488 -4.043,-3.397c-5.323,-3.185 -11.921,-3.159 -17.219,0.068l-2.712,1.653c-1.584,0.965 -3.48,0.972 -5.073,0.019c-1.624,-0.972 -2.513,-2.68 -2.376,-4.568l0.229,-3.167c0.458,-6.31 -2.63,-12.248 -8.058,-15.497c-1.435,-0.859 -2.99,-1.495 -4.621,-1.892l-3.085,-0.75c-0.516,-0.125 -0.994,-0.318 -1.42,-0.573c-1.313,-0.786 -2.18,-2.209 -2.319,-3.809c-0.08,-0.918 0.032,-2.672 1.685,-4.102l2.402,-2.076c6.179,-5.343 7.58,-14.285 3.33,-21.262l-1.651,-2.712c-0.975,-1.601 -0.974,-3.512 0.002,-5.112c0.977,-1.599 2.676,-2.473 4.545,-2.338l3.168,0.229c8.148,0.59 15.461,-4.742 17.389,-12.68l0.75,-3.087c0.51,-2.099 1.996,-3.004 2.836,-3.356c1.467,-0.614 3.12,-0.516 4.419,0.262c0.448,0.268 0.861,0.619 1.228,1.043l2.077,2.402c1.163,1.345 2.524,2.488 4.043,3.397c5.323,3.185 11.921,3.159 17.219,-0.068l2.712,-1.653c1.584,-0.967 3.48,-0.974 5.071,-0.022m0.604,-1.008c-1.972,-1.18 -4.322,-1.171 -6.285,0.025l-2.713,1.653c-4.925,3 -11.057,3.024 -16.005,0.063c-1.413,-0.845 -2.677,-1.908 -3.758,-3.158l-2.078,-2.402c-0.449,-0.519 -0.957,-0.95 -1.513,-1.283c-1.619,-0.969 -3.666,-1.095 -5.476,-0.338c-1.044,0.438 -2.893,1.561 -3.524,4.162l-0.75,3.087c-1.792,7.378 -8.59,12.334 -16.163,11.786l-3.168,-0.229c-2.317,-0.168 -4.422,0.915 -5.633,2.898c-1.209,1.983 -1.211,4.351 -0.002,6.335l1.651,2.712c3.95,6.485 2.648,14.797 -3.095,19.763l-2.402,2.076c-2.048,1.772 -2.187,3.952 -2.087,5.094c0.172,1.973 1.251,3.736 2.886,4.715c0.527,0.315 1.114,0.553 1.746,0.706l3.085,0.75c1.516,0.369 2.962,0.96 4.296,1.758c5.045,3.019 7.915,8.538 7.489,14.404l-0.229,3.167c-0.169,2.34 0.931,4.456 2.945,5.661l0.001,0.001c1.973,1.181 4.323,1.171 6.286,-0.024l2.713,-1.653c4.925,-3 11.057,-3.024 16.005,-0.063c1.412,0.845 2.677,1.908 3.758,3.158l2.078,2.402c0.449,0.519 0.958,0.95 1.512,1.282c1.62,0.97 3.667,1.095 5.477,0.338c1.044,-0.438 2.892,-1.56 3.524,-4.162l0.75,-3.087c1.792,-7.378 8.59,-12.334 16.163,-11.786l3.168,0.229c2.317,0.168 4.422,-0.915 5.633,-2.898c1.209,-1.983 1.211,-4.351 0.002,-6.335l-1.651,-2.712c-3.95,-6.485 -2.648,-14.797 3.095,-19.763l2.402,-2.076c2.048,-1.771 2.187,-3.952 2.087,-5.094c-0.172,-1.973 -1.251,-3.736 -2.886,-4.715c-0.527,-0.315 -1.114,-0.553 -1.746,-0.706l-3.085,-0.75c-1.516,-0.369 -2.962,-0.96 -4.296,-1.758c-5.045,-3.019 -7.915,-8.538 -7.489,-14.404l0.229,-3.167c0.169,-2.34 -0.932,-4.456 -2.947,-5.662l0,0z"/>
  <path id="svg_8" fill="#F24B45" d="m64,106.5c-23.435,0 -42.5,-19.065 -42.5,-42.5s19.065,-42.5 42.5,-42.5s42.5,19.065 42.5,42.5s-19.065,42.5 -42.5,42.5z"/>
  <path id="svg_9" fill="#FFFFFF" d="m64,23c22.607,0 41,18.393 41,41s-18.393,41 -41,41s-41,-18.393 -41,-41s18.393,-41 41,-41m0,-3c-24.301,0 -44,19.699 -44,44s19.699,44 44,44c24.301,0 44,-19.699 44,-44s-19.699,-44 -44,-44l0,0z"/>
  <defs>
   <circle r="41" id="SVGID_1_" cy="64" cx="64"/>
  </defs>
  <clipPath id="SVGID_2_">
   <use id="svg_11" xlink:href="#SVGID_1_"/>
  </clipPath>
  <path id="svg_12" fill="#DD292D" d="m36.983,46.345l4.679,4.696l-0.857,7.936l4.837,4.948l-0.169,3.779l-3.387,-3.393c0,0 -2.381,-0.435 -2.853,-0.064c-0.472,0.371 -1.518,2.53 -1.248,4.79c0.27,2.26 0.6,4.021 0.6,4.021l6.963,8.765l-7.25,5.933l21.25,25.75l21.31,-3.383l16.191,-7.826l7.286,-11.334l2.159,-11.054l2.832,-6.417l5.197,-7.558l-25.44,-25.689l-3.79,5.702l-4.307,-4.376c0,0 -4.909,0.21 -5.15,0.75c-0.241,0.54 -0.713,4.368 -0.713,4.368l-5.081,-5.056c0,0 -4.926,0.013 -6.027,0.485c-1.102,0.472 -2.249,4.79 -2.249,4.79l-5.308,-5.285c0,0 -6.093,0.36 -6.903,0.9s-1.45,1.417 -1.45,1.417l-3.286,-3.276l-7.836,5.681z" clip-path="url(#SVGID_2_)"/>
  <path id="svg_15" fill="#FFFFFF" d="m40.805,58.977l0,-12.632l-3.822,0l0,-2.894l0.286,0c1.215,0 2.26,-0.252 3.133,-0.757c0.873,-0.504 1.389,-1.181 1.551,-2.029l2.867,0l0,18.313l-4.015,0l0,-0.001z"/>
  <path id="svg_16" fill="#FFFFFF" d="m47.105,42.814c0.343,-0.763 0.928,-1.378 1.752,-1.844s1.92,-0.7 3.286,-0.7c3.77,0 5.654,1.711 5.654,5.133l0,8.803c0,3.439 -1.885,5.158 -5.654,5.158c-1.358,0 -2.45,-0.236 -3.279,-0.709c-0.829,-0.473 -1.416,-1.093 -1.758,-1.861c-0.344,-0.768 -0.515,-1.631 -0.515,-2.589l0,-8.803c-0.001,-0.961 0.171,-1.824 0.514,-2.588zm3.899,1.06c-0.178,0.299 -0.268,0.783 -0.268,1.453l0,8.988c0,0.67 0.091,1.154 0.271,1.454c0.18,0.299 0.541,0.448 1.084,0.448c0.56,0 0.934,-0.149 1.123,-0.448c0.189,-0.299 0.284,-0.784 0.284,-1.454l0,-8.988c0,-0.67 -0.094,-1.154 -0.28,-1.453c-0.187,-0.299 -0.562,-0.449 -1.126,-0.449c-0.548,0 -0.909,0.15 -1.088,0.449z"/>
  <path id="svg_17" fill="#FFFFFF" d="m60.679,42.814c0.343,-0.763 0.928,-1.378 1.752,-1.844s1.92,-0.7 3.286,-0.7c3.77,0 5.654,1.711 5.654,5.133l0,8.803c0,3.439 -1.885,5.158 -5.654,5.158c-1.358,0 -2.45,-0.236 -3.279,-0.709c-0.829,-0.473 -1.416,-1.093 -1.758,-1.861c-0.344,-0.768 -0.515,-1.631 -0.515,-2.589l0,-8.803c-0.001,-0.961 0.17,-1.824 0.514,-2.588zm3.899,1.06c-0.178,0.299 -0.268,0.783 -0.268,1.453l0,8.988c0,0.67 0.091,1.154 0.271,1.454c0.18,0.299 0.541,0.448 1.084,0.448c0.56,0 0.934,-0.149 1.123,-0.448c0.189,-0.299 0.284,-0.784 0.284,-1.454l0,-8.988c0,-0.67 -0.094,-1.154 -0.28,-1.453c-0.187,-0.299 -0.562,-0.449 -1.126,-0.449c-0.548,0 -0.91,0.15 -1.088,0.449z"/>
  <path id="svg_18" fill="#FFFFFF" d="m73.735,45.168c0,-1.641 0.345,-2.837 1.034,-3.588c0.688,-0.751 1.727,-1.126 3.113,-1.126c1.396,0 2.43,0.372 3.104,1.116c0.675,0.744 1.011,1.943 1.011,3.597c0,1.641 -0.338,2.842 -1.017,3.603c-0.679,0.762 -1.711,1.142 -3.098,1.142c-1.386,0 -2.424,-0.379 -3.113,-1.139c-0.689,-0.758 -1.034,-1.96 -1.034,-3.605zm4.147,-2.551c-0.411,0 -0.679,0.203 -0.804,0.608c-0.125,0.405 -0.188,1.053 -0.188,1.943c0,0.835 0.063,1.475 0.191,1.917c0.128,0.443 0.394,0.665 0.801,0.665c0.39,0 0.648,-0.222 0.773,-0.668c0.125,-0.445 0.189,-1.083 0.189,-1.914c0,-0.891 -0.062,-1.538 -0.184,-1.943c-0.124,-0.405 -0.384,-0.608 -0.778,-0.608zm0.599,16.958l8.466,-19.33l2.137,0l-8.44,19.33l-2.163,0zm7.059,-5.158c0,-1.645 0.345,-2.842 1.034,-3.591c0.689,-0.748 1.733,-1.123 3.133,-1.123c0.92,0 1.687,0.159 2.299,0.478c0.612,0.318 1.074,0.824 1.384,1.52c0.309,0.695 0.464,1.592 0.464,2.691c0,1.098 -0.156,2.003 -0.467,2.716c-0.312,0.713 -0.775,1.237 -1.387,1.574c-0.612,0.337 -1.377,0.505 -2.293,0.505c-1.396,0 -2.438,-0.382 -3.13,-1.145c-0.691,-0.763 -1.037,-1.971 -1.037,-3.625zm4.167,-2.551c-0.42,0 -0.694,0.202 -0.821,0.607c-0.126,0.405 -0.191,1.053 -0.191,1.943c0,0.844 0.066,1.489 0.197,1.937c0.132,0.447 0.404,0.671 0.815,0.671c0.432,0 0.706,-0.216 0.82,-0.649c0.115,-0.433 0.172,-1.094 0.172,-1.984c0,-0.912 -0.058,-1.561 -0.175,-1.946c-0.116,-0.386 -0.389,-0.579 -0.817,-0.579z"/>
  <path id="svg_20" fill="#FFFFFF" d="m42.283,69.491l-2.059,0l0,-0.743l2.884,0l0,4.742l-0.663,0l-0.081,-0.98c-0.242,0.41 -0.533,0.714 -0.874,0.911c-0.34,0.198 -0.748,0.296 -1.225,0.296c-0.601,0 -1.089,-0.154 -1.464,-0.461c-0.375,-0.307 -0.651,-0.709 -0.83,-1.205c-0.179,-0.496 -0.295,-1.028 -0.349,-1.596c-0.054,-0.568 -0.081,-1.212 -0.081,-1.935c0,-0.622 0.033,-1.203 0.099,-1.74c0.065,-0.537 0.195,-1.039 0.389,-1.506c0.194,-0.468 0.489,-0.847 0.888,-1.139c0.397,-0.292 0.913,-0.438 1.546,-0.438c0.766,0 1.365,0.268 1.799,0.804c0.433,0.536 0.67,1.215 0.712,2.039l-0.796,0c-0.179,-1.409 -0.768,-2.114 -1.767,-2.114c-0.588,0 -1.033,0.195 -1.335,0.585c-0.301,0.389 -0.495,0.884 -0.582,1.485c-0.086,0.6 -0.13,1.337 -0.13,2.209c0,0.688 0.035,1.331 0.105,1.93c0.07,0.598 0.251,1.14 0.543,1.624c0.292,0.485 0.73,0.727 1.317,0.727c0.551,0 0.968,-0.181 1.25,-0.544c0.283,-0.363 0.464,-0.785 0.545,-1.268c0.083,-0.48 0.134,-1.042 0.159,-1.683z"/>
  <path id="svg_21" fill="#FFFFFF" d="m44.982,70.968l0,-7.043l0.824,0l0,6.951c0,0.482 0.047,0.875 0.143,1.178c0.095,0.303 0.269,0.534 0.522,0.695c0.253,0.16 0.61,0.24 1.074,0.24c0.694,0 1.17,-0.186 1.43,-0.558c0.259,-0.372 0.389,-0.916 0.389,-1.632l0,-6.873l0.824,0l0,6.644c0,1.02 -0.193,1.803 -0.578,2.347s-1.065,0.815 -2.038,0.815c-1.725,-0.001 -2.59,-0.922 -2.59,-2.764z"/>
  <path id="svg_22" fill="#FFFFFF" d="m53.845,63.925l0.953,0l2.566,9.566l-0.836,0l-0.756,-2.952l-2.898,0l-0.784,2.952l-0.798,0l2.553,-9.566zm-0.798,5.885l2.549,0l-1.262,-4.837l-0.025,0l-1.262,4.837z"/>
  <path id="svg_23" fill="#FFFFFF" d="m58.308,73.491l0,-9.566l2.258,0c0.792,0 1.411,0.19 1.862,0.569c0.45,0.379 0.675,1.014 0.675,1.903c0,0.519 -0.121,1 -0.365,1.442c-0.243,0.442 -0.591,0.701 -1.043,0.777l0,0.026c0.514,0.13 0.856,0.381 1.024,0.754c0.168,0.373 0.251,0.901 0.251,1.584c0,0.67 0.031,1.191 0.091,1.562c0.061,0.371 0.177,0.647 0.351,0.829l0,0.12l-0.905,0c-0.167,-0.372 -0.272,-0.753 -0.318,-1.143c-0.045,-0.391 -0.067,-0.948 -0.067,-1.672c0,-0.539 -0.151,-0.955 -0.451,-1.249s-0.685,-0.441 -1.154,-0.441l-1.382,0l0,4.506l-0.827,0l0,-0.001zm0.825,-8.823l0,3.575l1.459,0c1.125,0 1.688,-0.602 1.688,-1.807c0,-0.649 -0.15,-1.106 -0.448,-1.37c-0.298,-0.265 -0.782,-0.397 -1.45,-0.397l-1.249,0l0,-0.001z"/>
  <path id="svg_24" fill="#FFFFFF" d="m66.599,63.925l0.953,0l2.566,9.566l-0.836,0l-0.756,-2.952l-2.898,0l-0.784,2.952l-0.798,0l2.553,-9.566zm-0.798,5.885l2.549,0l-1.262,-4.837l-0.025,0l-1.262,4.837z"/>
  <path id="svg_25" fill="#FFFFFF" d="m72.139,63.925l3.52,8.21l0.025,0l0,-8.21l0.824,0l0,9.566l-0.996,0l-3.549,-8.184l-0.025,0l0,8.184l-0.824,0l0,-9.566l1.025,0z"/>
  <path id="svg_26" fill="#FFFFFF" d="m79.779,64.668l-2.167,0l0,-0.743l5.167,0l0,0.743l-2.163,0l0,8.823l-0.837,0l0,-8.823z"/>
  <path id="svg_27" fill="#FFFFFF" d="m88.267,73.491l-4.399,0l0,-9.566l4.33,0l0,0.743l-3.506,0l0,3.442l3.189,0l0,0.743l-3.189,0l0,3.896l3.575,0l0,0.742z"/>
  <path id="svg_28" fill="#FFFFFF" d="m93.928,73.491l-4.399,0l0,-9.566l4.33,0l0,0.743l-3.506,0l0,3.442l3.189,0l0,0.743l-3.189,0l0,3.896l3.575,0l0,0.742z"/>
  <path id="svg_29" fill="#FFFFFF" d="m41.012,86.912l-2.291,0.815c-0.322,0.115 -0.659,-0.13 -0.65,-0.472l0.067,-2.431c0.003,-0.112 -0.033,-0.222 -0.101,-0.31l-1.483,-1.927c-0.209,-0.271 -0.08,-0.667 0.248,-0.764l2.332,-0.687c0.107,-0.032 0.201,-0.099 0.264,-0.192l1.375,-2.006c0.193,-0.282 0.61,-0.282 0.803,0l1.375,2.006c0.063,0.092 0.157,0.16 0.264,0.192l2.332,0.687c0.328,0.097 0.457,0.493 0.248,0.764l-1.483,1.927c-0.068,0.089 -0.104,0.198 -0.101,0.31l0.067,2.431c0.009,0.342 -0.328,0.587 -0.65,0.472l-2.291,-0.815c-0.104,-0.038 -0.219,-0.038 -0.325,0z"/>
  <path id="svg_30" fill="#FFFFFF" d="m53.101,86.912l-2.291,0.815c-0.322,0.115 -0.659,-0.13 -0.65,-0.472l0.067,-2.431c0.003,-0.112 -0.033,-0.222 -0.101,-0.31l-1.483,-1.927c-0.209,-0.271 -0.08,-0.667 0.248,-0.764l2.332,-0.687c0.107,-0.032 0.201,-0.099 0.264,-0.192l1.375,-2.006c0.193,-0.282 0.61,-0.282 0.803,0l1.375,2.006c0.063,0.092 0.157,0.16 0.264,0.192l2.332,0.687c0.328,0.097 0.457,0.493 0.248,0.764l-1.483,1.927c-0.068,0.089 -0.104,0.198 -0.101,0.31l0.067,2.431c0.009,0.342 -0.328,0.587 -0.65,0.472l-2.291,-0.815c-0.105,-0.038 -0.22,-0.038 -0.325,0z"/>
  <path id="svg_31" fill="#FFFFFF" d="m77.278,86.912l-2.291,0.815c-0.322,0.115 -0.659,-0.13 -0.65,-0.472l0.067,-2.431c0.003,-0.112 -0.033,-0.222 -0.101,-0.31l-1.483,-1.927c-0.209,-0.271 -0.08,-0.667 0.248,-0.764l2.332,-0.687c0.107,-0.032 0.201,-0.099 0.264,-0.192l1.375,-2.006c0.193,-0.282 0.61,-0.282 0.803,0l1.375,2.006c0.063,0.092 0.157,0.16 0.264,0.192l2.332,0.687c0.328,0.097 0.457,0.493 0.248,0.764l-1.483,1.927c-0.068,0.089 -0.104,0.198 -0.101,0.31l0.067,2.431c0.009,0.342 -0.328,0.587 -0.65,0.472l-2.291,-0.815c-0.105,-0.038 -0.22,-0.038 -0.325,0z"/>
  <path id="svg_32" fill="#FFFFFF" d="m65.189,86.912l-2.291,0.815c-0.322,0.115 -0.659,-0.13 -0.65,-0.472l0.067,-2.431c0.003,-0.112 -0.033,-0.222 -0.101,-0.31l-1.483,-1.927c-0.209,-0.271 -0.08,-0.667 0.248,-0.764l2.332,-0.687c0.107,-0.032 0.201,-0.099 0.264,-0.192l1.375,-2.006c0.193,-0.282 0.61,-0.282 0.803,0l1.375,2.006c0.063,0.092 0.157,0.16 0.264,0.192l2.332,0.687c0.328,0.097 0.457,0.493 0.248,0.764l-1.483,1.927c-0.068,0.089 -0.104,0.198 -0.101,0.31l0.067,2.431c0.009,0.342 -0.328,0.587 -0.65,0.472l-2.291,-0.815c-0.104,-0.038 -0.219,-0.038 -0.325,0z"/>
  <path id="svg_33" fill="#FFFFFF" d="m89.366,86.912l-2.291,0.815c-0.322,0.115 -0.659,-0.13 -0.65,-0.472l0.067,-2.431c0.003,-0.112 -0.033,-0.222 -0.101,-0.31l-1.483,-1.927c-0.209,-0.271 -0.08,-0.667 0.248,-0.764l2.332,-0.687c0.107,-0.032 0.201,-0.099 0.264,-0.192l1.375,-2.006c0.193,-0.282 0.61,-0.282 0.803,0l1.375,2.006c0.063,0.092 0.157,0.16 0.264,0.192l2.332,0.687c0.328,0.097 0.457,0.493 0.248,0.764l-1.483,1.927c-0.068,0.089 -0.104,0.198 -0.101,0.31l0.067,2.431c0.009,0.342 -0.328,0.587 -0.65,0.472l-2.291,-0.815c-0.104,-0.038 -0.219,-0.038 -0.325,0z"/>
 </g>
</svg>