<svg width="128" height="128" xmlns="http://www.w3.org/2000/svg" xmlns:xlink="http://www.w3.org/1999/xlink">
 <g>
  <title>background</title>
  <rect fill="none" id="canvas_background" height="402" width="582" y="-1" x="-1"/>
 </g>
 <g>
  <title>Layer 1</title>
  <rect id="svg_1" y="-541" x="-219.984" width="727.938" opacity="0" height="1520" fill="#F4F5F5"/>
  <circle id="svg_3" r="64" fill="#56aaff" cy="64" cx="64"/>
  <defs>
   <circle r="64" id="SVGID_23_" cy="64" cx="64"/>
  </defs>
  <clipPath id="SVGID_2_">
   <use id="svg_5" xlink:href="#SVGID_23_"/>
  </clipPath>
  <polygon id="svg_6" points="29.315,103.933 53.5,127.998 128,127.998 128,66.557 93.499,31.955      91.417,31.083 81.866,21.489 74.667,23.25 67.718,16.363 45.61,59.233    " fill="#4b92d8" clip-path="url(#SVGID_2_)"/>
  <path id="svg_8" fill="#016938" d="m58.799,19.683l-28.778,63.085c-0.913,2.002 -0.023,4.386 1.979,5.299l27.592,12.587c2.002,0.913 4.386,0.023 5.299,-1.979l28.779,-63.084c0.913,-2.002 0.023,-4.386 -1.979,-5.299l-27.592,-12.588c-2.002,-0.913 -4.386,-0.022 -5.3,1.979z"/>
  <path id="svg_9" fill="#027B38" d="m44.408,22.075l-3.698,69.24c-0.117,2.197 1.584,4.09 3.781,4.208l30.284,1.617c2.197,0.117 4.09,-1.584 4.208,-3.781l3.698,-69.24c0.117,-2.197 -1.584,-4.09 -3.781,-4.208l-30.284,-1.617c-2.197,-0.117 -4.09,1.585 -4.208,3.781z"/>
  <path id="svg_10" fill="#89BC49" d="m32.715,31.142l24.15,64.998c0.766,2.062 3.08,3.123 5.143,2.356l28.429,-10.562c2.062,-0.766 3.123,-3.08 2.356,-5.143l-24.15,-64.997c-0.766,-2.062 -3.08,-3.123 -5.143,-2.356l-28.428,10.562c-2.062,0.766 -3.123,3.08 -2.357,5.142z"/>
  <path id="svg_11" fill="#92C142" d="m32.715,31.142l24.15,64.998c0.766,2.062 3.08,3.123 5.143,2.356l28.429,-10.562c2.062,-0.766 3.123,-3.08 2.356,-5.143l-24.15,-64.997c-0.766,-2.062 -3.08,-3.123 -5.143,-2.356l-28.428,10.562c-2.062,0.766 -3.123,3.08 -2.357,5.142z"/>
  <defs>
   <path id="SVGID_25_" d="m32.715,31.142l24.15,64.998c0.766,2.062 3.08,3.123 5.143,2.356l28.429,-10.562c2.062,-0.766 3.123,-3.08 2.356,-5.143l-24.15,-64.997c-0.766,-2.062 -3.08,-3.123 -5.143,-2.356l-28.428,10.562c-2.062,0.766 -3.123,3.08 -2.357,5.142z"/>
  </defs>
  <clipPath id="SVGID_4_">
   <use id="svg_13" xlink:href="#SVGID_25_"/>
  </clipPath>
  <path id="svg_15" fill="#3C9C36" d="m41.262,22.823c0.114,0.248 0.228,0.496 0.325,0.755l0,0.001l15.399,-5.719c0,-0.001 -0.001,-0.002 -0.001,-0.003c-0.097,-0.26 -0.171,-0.522 -0.247,-0.784l11.239,-4.176l4.077,10.974c-0.286,0.139 -0.576,0.273 -0.878,0.389l19.312,51.978c0.305,-0.109 0.611,-0.198 0.919,-0.279l4.649,12.514l-11.008,4.09c-0.447,-0.68 -0.833,-1.414 -1.129,-2.209l0,-0.001l-15.399,5.719c0,0.001 0.001,0.002 0.001,0.003c0.296,0.795 0.483,1.603 0.588,2.41l-10.65,3.957l-4.66,-12.542c0.213,-0.095 0.422,-0.194 0.643,-0.276l-19.306,-51.966c-0.221,0.082 -0.445,0.143 -0.667,0.21l-4.088,-11.002l10.881,-4.043zm-3.111,13.125l19.693,53.004c3.463,-0.131 6.804,1.399 8.966,4.107l16.437,-6.104c-0.132,-3.507 1.436,-6.893 4.209,-9.052l-19.662,-52.92c-3.509,0.175 -6.907,-1.365 -9.097,-4.107l-16.436,6.104c0.131,3.464 -1.4,6.806 -4.11,8.968z"/>
  <ellipse id="svg_16" transform="matrix(-0.3483,-0.9374,0.9374,-0.3483,31.2093,135.6323) " ry="11.806" rx="9.24" fill="#3C9C36" cy="56.967" cx="62.754"/>
  <path id="svg_17" fill="#3C9C36" d="m48.913,34.371l2.498,6.724c0.882,2.373 3.52,3.582 5.893,2.7l0.452,-0.168c2.373,-0.882 3.582,-3.52 2.7,-5.893l-2.498,-6.724c-0.882,-2.373 -3.52,-3.582 -5.893,-2.7l-0.452,0.168c-2.372,0.881 -3.581,3.52 -2.7,5.893z"/>
  <path id="svg_18" fill="#3C9C36" d="m64.502,76.33l2.498,6.724c0.882,2.373 3.52,3.582 5.893,2.7l0.452,-0.168c2.373,-0.882 3.582,-3.52 2.7,-5.893l-2.498,-6.724c-0.882,-2.373 -3.52,-3.582 -5.893,-2.7l-0.452,0.168c-2.372,0.881 -3.581,3.52 -2.7,5.893z"/>
  <path id="svg_19" fill="#F49C0B" d="m95.737,105.25l-63.579,0c-2.209,0 -4,-1.791 -4,-4l0,-46.737c0,-2.209 1.791,-4 4,-4l63.579,0c2.209,0 4,1.791 4,4l0,46.737c0,2.209 -1.791,4 -4,4z"/>
  <path id="svg_20" opacity="0.67" fill="#E48316" d="m95.526,50.513l-3.158,0c2.325,0 4.211,1.885 4.211,4.211l0,30.476l-22.297,-1.972l20.914,20.914c-0.748,0.683 -1.735,1.11 -2.827,1.11l3.158,0c2.325,0 4.211,-1.885 4.211,-4.211l0,-46.317c-0.001,-2.326 -1.886,-4.211 -4.212,-4.211z"/>
  <path id="svg_21" fill="#FBCA76" d="m87.292,101.131l-2.113,0c-0.291,0 -0.526,-0.235 -0.526,-0.526c0,-0.291 0.235,-0.526 0.526,-0.526l2.113,0c0.291,0 0.526,0.235 0.526,0.526c0.001,0.291 -0.235,0.526 -0.526,0.526zm-7.398,0l-2.113,0c-0.291,0 -0.526,-0.235 -0.526,-0.526c0,-0.291 0.235,-0.526 0.526,-0.526l2.113,0c0.291,0 0.526,0.235 0.526,0.526c0,0.291 -0.235,0.526 -0.526,0.526zm-7.397,0l-2.113,0c-0.291,0 -0.526,-0.235 -0.526,-0.526c0,-0.291 0.235,-0.526 0.526,-0.526l2.113,0c0.291,0 0.526,0.235 0.526,0.526c0,0.291 -0.235,0.526 -0.526,0.526zm-7.397,0l-2.113,0c-0.291,0 -0.526,-0.235 -0.526,-0.526c0,-0.291 0.235,-0.526 0.526,-0.526l2.113,0c0.291,0 0.526,0.235 0.526,0.526c0,0.291 -0.235,0.526 -0.526,0.526zm-7.397,0l-2.115,0c-0.291,0 -0.526,-0.235 -0.526,-0.526c0,-0.291 0.235,-0.526 0.526,-0.526l2.115,0c0.291,0 0.526,0.235 0.526,0.526c0,0.291 -0.236,0.526 -0.526,0.526zm-7.399,0l-2.113,0c-0.291,0 -0.526,-0.235 -0.526,-0.526c0,-0.291 0.235,-0.526 0.526,-0.526l2.113,0c0.291,0 0.526,0.235 0.526,0.526c0.001,0.291 -0.235,0.526 -0.526,0.526zm-7.397,0l-2.113,0c-0.291,0 -0.526,-0.235 -0.526,-0.526c0,-0.291 0.235,-0.526 0.526,-0.526l2.113,0c0.291,0 0.526,0.235 0.526,0.526c0,0.291 -0.235,0.526 -0.526,0.526zm-7.397,0l-0.028,0c-0.871,0 -1.579,-0.708 -1.579,-1.579l0,-0.46c0,-0.291 0.235,-0.526 0.526,-0.526s0.526,0.235 0.526,0.526l0,0.46c0,0.29 0.236,0.526 0.526,0.526c0.291,0 0.54,0.235 0.54,0.526c0.001,0.292 -0.22,0.527 -0.511,0.527zm57.064,-0.012c-0.254,0 -0.478,-0.185 -0.519,-0.445c-0.045,-0.287 0.151,-0.556 0.439,-0.601c0.254,-0.04 0.445,-0.263 0.445,-0.52l0,-0.623c0,-0.291 0.235,-0.526 0.526,-0.526c0.291,0 0.526,0.235 0.526,0.526l0,0.623c0,0.782 -0.561,1.439 -1.335,1.56c-0.026,0.004 -0.054,0.006 -0.082,0.006zm-58.144,-6.784c-0.291,0 -0.526,-0.235 -0.526,-0.526l0,-2.115c0,-0.291 0.235,-0.526 0.526,-0.526s0.526,0.235 0.526,0.526l0,2.115c0,0.291 -0.236,0.526 -0.526,0.526zm59.035,-0.163c-0.291,0 -0.526,-0.235 -0.526,-0.526l0,-2.115c0,-0.291 0.235,-0.526 0.526,-0.526c0.291,0 0.526,0.235 0.526,0.526l0,2.115c0.001,0.29 -0.235,0.526 -0.526,0.526zm-59.035,-7.235c-0.291,0 -0.526,-0.235 -0.526,-0.526l0,-2.113c0,-0.291 0.235,-0.526 0.526,-0.526s0.526,0.235 0.526,0.526l0,2.113c0,0.291 -0.236,0.526 -0.526,0.526zm0,-7.397c-0.291,0 -0.526,-0.235 -0.526,-0.526l0,-2.114c0,-0.291 0.235,-0.526 0.526,-0.526s0.526,0.235 0.526,0.526l0,2.113c0,0.291 -0.236,0.527 -0.526,0.527zm0,-7.397c-0.291,0 -0.526,-0.235 -0.526,-0.526l0,-2.113c0,-0.291 0.235,-0.526 0.526,-0.526s0.526,0.235 0.526,0.526l0,2.113c0,0.29 -0.236,0.526 -0.526,0.526zm0,-7.399c-0.291,0 -0.526,-0.235 -0.526,-0.526l0,-2.113c0,-0.291 0.235,-0.526 0.526,-0.526s0.526,0.235 0.526,0.526l0,2.113c0,0.291 -0.236,0.526 -0.526,0.526zm59.035,-0.163c-0.291,0 -0.526,-0.235 -0.526,-0.526l0,-2.113c0,-0.291 0.235,-0.526 0.526,-0.526c0.291,0 0.526,0.235 0.526,0.526l0,2.113c0.001,0.29 -0.235,0.526 -0.526,0.526zm-59.035,-7.234c-0.291,0 -0.526,-0.235 -0.526,-0.526l0,-0.61c0,-0.781 0.583,-1.453 1.356,-1.564c0.282,-0.034 0.554,0.158 0.595,0.447c0.041,0.288 -0.159,0.554 -0.447,0.595c-0.257,0.037 -0.451,0.261 -0.451,0.521l0,0.61c-0.001,0.292 -0.237,0.527 -0.527,0.527zm59.035,-0.163c-0.291,0 -0.526,-0.235 -0.526,-0.526l0,-0.446c0,-0.29 -0.236,-0.526 -0.526,-0.526c-0.291,0 -0.534,-0.235 -0.534,-0.526s0.229,-0.526 0.52,-0.526l0.013,0c0.871,0 1.579,0.708 1.579,1.579l0,0.446c0.001,0.289 -0.235,0.525 -0.526,0.525zm-6.35,-1.499l-2.113,0c-0.291,0 -0.526,-0.235 -0.526,-0.526s0.235,-0.526 0.526,-0.526l2.113,0c0.291,0 0.526,0.235 0.526,0.526s-0.236,0.526 -0.526,0.526zm-7.398,0l-2.113,0c-0.291,0 -0.526,-0.235 -0.526,-0.526s0.235,-0.526 0.526,-0.526l2.113,0c0.291,0 0.526,0.235 0.526,0.526s-0.235,0.526 -0.526,0.526zm-7.397,0l-2.113,0c-0.291,0 -0.526,-0.235 -0.526,-0.526s0.235,-0.526 0.526,-0.526l2.113,0c0.291,0 0.526,0.235 0.526,0.526s-0.235,0.526 -0.526,0.526zm-7.397,0l-2.115,0c-0.291,0 -0.526,-0.235 -0.526,-0.526s0.235,-0.526 0.526,-0.526l2.115,0c0.291,0 0.526,0.235 0.526,0.526s-0.235,0.526 -0.526,0.526zm-7.398,0l-2.113,0c-0.291,0 -0.526,-0.235 -0.526,-0.526s0.235,-0.526 0.526,-0.526l2.113,0c0.291,0 0.526,0.235 0.526,0.526s-0.235,0.526 -0.526,0.526zm-7.398,0l-2.113,0c-0.291,0 -0.526,-0.235 -0.526,-0.526s0.235,-0.526 0.526,-0.526l2.113,0c0.291,0 0.526,0.235 0.526,0.526s-0.235,0.526 -0.526,0.526zm-7.397,0l-2.115,0c-0.291,0 -0.526,-0.235 -0.526,-0.526s0.235,-0.526 0.526,-0.526l2.115,0c0.291,0 0.526,0.235 0.526,0.526s-0.235,0.526 -0.526,0.526z"/>
  <path id="svg_22" opacity="0.5" fill="#F9C187" d="m31.316,101.039l0,-46.315c0,-2.325 1.885,-4.211 4.211,-4.211l-3.158,0c-2.325,0 -4.211,1.885 -4.211,4.211l0,46.316c0,2.325 1.885,4.211 4.211,4.211l3.158,0c-2.326,-0.001 -4.211,-1.886 -4.211,-4.212z"/>
  <path id="svg_23" fill="#D17311" d="m99.842,86.303l-19.474,0c-4.418,0 -8,-3.582 -8,-8l0,-0.842c0,-4.418 3.582,-8 8,-8l19.474,0c1.105,0 2,0.895 2,2l0,12.842c0,1.104 -0.895,2 -2,2z"/>
  <defs>
   <path id="SVGID_27_" d="m99.737,69.461l-5.06,0l0,16.842l5.06,0c1.163,0 2.105,-0.943 2.105,-2.105l0,-12.632c0,-1.163 -0.942,-2.105 -2.105,-2.105z"/>
  </defs>
  <clipPath id="SVGID_6_">
   <use id="svg_25" xlink:href="#SVGID_27_"/>
  </clipPath>
  <rect id="svg_26" y="65.63" x="98.684" width="3.158" height="25.674" fill="#CA6213" clip-path="url(#SVGID_6_)"/>
  <defs>
   <path id="SVGID_29_" d="m99.842,86.303l-19.474,0c-4.418,0 -8,-3.582 -8,-8l0,-0.842c0,-4.418 3.582,-8 8,-8l19.474,0c1.105,0 2,0.895 2,2l0,12.842c0,1.104 -0.895,2 -2,2z"/>
  </defs>
  <clipPath id="SVGID_8_">
   <use id="svg_28" xlink:href="#SVGID_29_"/>
  </clipPath>
  <polygon id="svg_29" points="77.794,80.692 83.973,86.771 94.836,86.771 83.333,75.266    " fill="#C56415" clip-path="url(#SVGID_8_)"/>
  <circle id="svg_31" r="3.888" fill="#D8B997" cy="77.882" cx="80.467"/>
  <path id="svg_32" fill="#F1D2AE" d="m78.684,77.882c0,-1.511 0.471,-2.866 1.217,-3.831c-1.877,0.276 -3.322,1.877 -3.322,3.831c0,1.953 1.446,3.555 3.322,3.831c-0.746,-0.965 -1.217,-2.32 -1.217,-3.831z"/>
  <path id="svg_33" fill="#C8A57E" d="m82.249,77.882c0,1.511 -0.471,2.866 -1.217,3.831c1.877,-0.276 3.322,-1.877 3.322,-3.831c0,-1.953 -1.446,-3.555 -3.322,-3.831c0.746,0.964 1.217,2.319 1.217,3.831z"/>
 </g>
</svg>