<svg width="128" height="128" xmlns="http://www.w3.org/2000/svg" xmlns:xlink="http://www.w3.org/1999/xlink">
 <g>
  <title>background</title>
  <rect fill="none" id="canvas_background" height="402" width="582" y="-1" x="-1"/>
 </g>
 <g>
  <title>Layer 1</title>
  <rect id="svg_1" y="-351" x="-59.984" width="727.938" opacity="0" height="1520" fill="#F4F5F5"/>
  <circle id="svg_3" r="64" fill="#56aaff" cy="64" cx="64"/>
  <defs>
   <circle r="64" id="SVGID_3_" cy="64" cx="64"/>
  </defs>
  <clipPath id="SVGID_2_">
   <use id="svg_5" xlink:href="#SVGID_3_"/>
  </clipPath>
  <polygon id="svg_6" points="93.80523225665092,29.677000045776367 128.23323366045952,64 128.23323366045952,128 54.59323427081108,128 33.574233263731,106.90599822998047 " fill="#4b92d8" clip-path="url(#SVGID_2_)"/>
  <path id="svg_7" fill="#F1F1F1" d="m84.044,20l-48.026,0c-2.439,0 -4.018,2.11 -4.018,4.549l0,78.903c0,2.439 1.579,4.549 4.018,4.549l55.989,0c2.439,0 4.018,-2.11 4.018,-4.549l0,-71.309l-11.981,-12.143z"/>
  <defs>
   <path id="SVGID_5_" d="m84.044,20l-48.026,0c-2.439,0 -4.018,2.11 -4.018,4.549l0,78.903c0,2.439 1.579,4.549 4.018,4.549l55.989,0c2.439,0 4.018,-2.11 4.018,-4.549l0,-71.309l-11.981,-12.143z"/>
  </defs>
  <clipPath id="SVGID_4_">
   <use id="svg_9" xlink:href="#SVGID_5_"/>
  </clipPath>
  <polygon id="svg_11" points="50.948,67.621 65.539,82.042 42.971,83.087 49.777,90 42.971,91.087 49.277,97.555       42.971,99.087 53.027,109.305 97.684,109.305 97.684,75.707 97.075,54.055 81.059,37.758 70.97,44.918 62.684,35.107     " fill="#DDE1F1"/>
  <path id="svg_12" fill="#C2DFC9" d="m88.186,32.138l7.839,0.005l-11.981,-12.143l0,7.96c0,2.438 1.725,4.178 4.142,4.178z"/>
  <path id="svg_13" fill="#495260" d="m84,83.5l-40,0c-0.828,0 -1.5,-0.672 -1.5,-1.5s0.672,-1.5 1.5,-1.5l40,0c0.828,0 1.5,0.672 1.5,1.5s-0.672,1.5 -1.5,1.5z"/>
  <path id="svg_14" fill="#495260" d="m84,91.5l-40,0c-0.828,0 -1.5,-0.672 -1.5,-1.5s0.672,-1.5 1.5,-1.5l40,0c0.828,0 1.5,0.672 1.5,1.5s-0.672,1.5 -1.5,1.5z"/>
  <path id="svg_15" fill="#495260" d="m84,99.5l-40,0c-0.828,0 -1.5,-0.672 -1.5,-1.5s0.672,-1.5 1.5,-1.5l40,0c0.828,0 1.5,0.672 1.5,1.5s-0.672,1.5 -1.5,1.5z"/>
  <path id="svg_17" fill="#0E9CD9" d="m69.568,31.844l-1.319,11.303c2.314,0.88 4.242,2.728 5.132,5.245c0.573,1.619 0.631,3.292 0.274,4.851l10.257,4.895c0.527,0.252 1.155,-0.023 1.329,-0.581c1.308,-4.188 1.323,-8.819 -0.253,-13.273c-2.379,-6.723 -7.827,-11.477 -14.212,-13.254c-0.566,-0.158 -1.14,0.23 -1.208,0.814z"/>
  <path id="svg_18" fill="#E95037" d="m66.68,59.901c-3.653,0.668 -7.398,-1.12 -9.176,-4.38c-1.094,-2.006 -1.312,-4.174 -0.858,-6.157l-10.256,-4.895c-0.527,-0.251 -1.155,0.023 -1.329,0.58c-1.286,4.118 -1.322,8.663 0.175,13.049c3.701,10.842 15.624,16.783 26.503,13.191c4.655,-1.537 8.399,-4.531 10.911,-8.3c0.324,-0.486 0.141,-1.147 -0.385,-1.398l-10.257,-4.896c-1.257,1.601 -3.079,2.795 -5.328,3.206z"/>
  <path id="svg_19" fill="#69B32D" d="m62.239,43.074c0.734,-0.26 1.479,-0.405 2.22,-0.464l1.316,-11.275c0.067,-0.576 -0.389,-1.08 -0.968,-1.071c-2.218,0.035 -4.469,0.421 -6.676,1.202c-4.455,1.576 -8.045,4.5 -10.479,8.151c-0.324,0.486 -0.142,1.147 0.385,1.399l10.257,4.895c0.988,-1.257 2.326,-2.264 3.945,-2.837z"/>
  <defs>
   <path id="SVGID_7_" d="m69.695,30.76l-1.446,12.387c2.314,0.88 4.242,2.728 5.132,5.245c0.573,1.619 0.631,3.292 0.274,4.851l10.257,4.895c0.527,0.252 1.155,-0.023 1.329,-0.581c1.308,-4.188 1.323,-8.819 -0.253,-13.273c-2.512,-7.099 -8.447,-12.003 -15.293,-13.524zm-3.015,29.141c-3.653,0.668 -7.398,-1.12 -9.176,-4.38c-1.094,-2.006 -1.312,-4.174 -0.858,-6.157l-10.256,-4.895c-0.527,-0.251 -1.155,0.023 -1.329,0.58c-1.286,4.118 -1.322,8.663 0.175,13.049c3.701,10.842 15.624,16.783 26.503,13.191c4.655,-1.537 8.399,-4.531 10.911,-8.3c0.324,-0.486 0.141,-1.147 -0.385,-1.398l-10.257,-4.896c-1.257,1.601 -3.079,2.795 -5.328,3.206zm-4.441,-16.827c0.734,-0.26 1.479,-0.405 2.22,-0.464l1.316,-11.275c0.067,-0.576 -0.389,-1.08 -0.968,-1.071c-2.218,0.035 -4.469,0.421 -6.676,1.202c-4.455,1.576 -8.045,4.5 -10.479,8.151c-0.324,0.486 -0.142,1.147 0.385,1.399l10.257,4.895c0.988,-1.257 2.326,-2.264 3.945,-2.837z"/>
  </defs>
  <clipPath id="SVGID_6_">
   <use id="svg_21" xlink:href="#SVGID_7_"/>
  </clipPath>
  <circle id="svg_22" r="12.507" opacity="0.4" fill="#FFFFFF" cy="51.304" cx="65.151" clip-path="url(#SVGID_6_)"/>
 </g>
</svg>