<svg width="128" height="128" xmlns="http://www.w3.org/2000/svg" xmlns:xlink="http://www.w3.org/1999/xlink">
 <g>
  <title>background</title>
  <rect fill="none" id="canvas_background" height="402" width="582" y="-1" x="-1"/>
 </g>
 <g>
  <title>Layer 1</title>
  <rect id="svg_1" y="-921" x="-219.984" width="727.938" opacity="0" height="1520" fill="#F4F5F5"/>
  <circle id="svg_3" r="64" fill="#56aaff" cy="64" cx="64"/>
  <defs>
   <circle r="64" id="SVGID_83_" cy="64" cx="64"/>
  </defs>
  <clipPath id="SVGID_2_">
   <use id="svg_5" xlink:href="#SVGID_83_"/>
  </clipPath>
  <polygon id="svg_6" points="19.595,97.469 50.079,128 128,128 128,54.388 101,27.362      35.36,70.024    " fill="#4b92d8" clip-path="url(#SVGID_2_)"/>
  <path id="svg_8" fill="#CED7DD" d="m74.736,87l3.292,-0.277c0,0 -2.643,-0.151 -3.175,-2.595c-0.001,-0.005 -0.003,-0.007 -0.004,-0.012l-3.079,-14.116l-11.6,0l-3.17,13.986l0,0.003c-1,2.444 -3.13,2.733 -3.13,2.733l3.336,0.278l1.554,0l14.421,0l1.555,0z"/>
  <path id="svg_9" fill="#EBEDED" d="m81,87.237c0,0.421 -0.342,0.763 -0.763,0.763l-28.474,0c-0.421,0 -0.763,-0.342 -0.763,-0.763l0,-0.474c0,-0.421 0.342,-0.763 0.763,-0.763l28.474,0c0.421,0 0.763,0.342 0.763,0.763l0,0.474z"/>
  <path id="svg_10" fill="#EBEDED" d="m30,72l0,2c0,2.209 1.791,4 4,4l64,0c2.209,0 4,-1.791 4,-4l0,-2l-72,0z"/>
  <path id="svg_11" fill="#333333" d="m102,72l0,-41.996c0,-2.212 -1.791,-4.004 -4,-4.004l-64,0c-2.209,0 -4,1.793 -4,4.004l0,41.996l72,0z"/>
  <path id="svg_12" fill="#183a5b" d="m98,67c0,0.552 -0.448,1 -1,1l-62,0c-0.552,0 -1,-0.448 -1,-1l0,-36c0,-0.552 0.448,-1 1,-1l62,0c0.552,0 1,0.448 1,1l0,36z"/>
  <circle id="svg_13" r="0.638" fill="#2BBCED" cy="28" cx="66"/>
  <circle id="svg_14" r="1" fill="#333333" cy="75" cx="66"/>
  <rect id="svg_15" y="33" x="37" width="58" height="8" fill="#CFC5FF"/>
  <rect id="svg_16" y="44" x="37" width="18" height="21" fill="#CFC5FF"/>
  <rect id="svg_17" y="44" x="57" width="18" height="21" fill="#CFC5FF"/>
  <rect id="svg_18" y="44" x="77" width="18" height="21" fill="#CFC5FF"/>
  <polygon id="svg_19" points="46,58.585 55.813,68 46,68   " opacity="0.24" fill="#4C527B"/>
  <polygon id="svg_20" points="59.787,72 45.844,72 45,68 55.78,68   " fill="#242423"/>
  <polygon id="svg_21" points="65.908,77.998 46,78 46,72 59.787,72   " opacity="0.35" fill="#CED7DD"/>
  <path id="svg_23" fill="#EBEEEF" d="m108,96c0,1.105 -0.895,2 -2,2l-20,0c-1.105,0 -2,-0.895 -2,-2l0,-10c0,-1.105 0.895,-2 2,-2l20,0c1.105,0 2,0.895 2,2l0,10z"/>
  <path id="svg_24" fill="#183a5b" d="m107,96c0,0.552 -0.448,1 -1,1l-18,0c-0.552,0 -1,-0.448 -1,-1l0,-10c0,-0.552 0.448,-1 1,-1l18,0c0.552,0 1,0.448 1,1l0,10z"/>
  <circle id="svg_25" r="0.5" fill="#333333" cy="91" cx="85.5"/>
  <path id="svg_27" fill="#EBEEEF" d="m47,96c0,1.105 -0.895,2 -2,2l-24,0c-1.105,0 -2,-0.895 -2,-2l0,-36c0,-1.105 0.895,-2 2,-2l24,0c1.105,0 2,0.895 2,2l0,36z"/>
  <path id="svg_28" fill="#183a5b" d="m45,93c0,0.552 -0.448,1 -1,1l-22,0c-0.552,0 -1,-0.448 -1,-1l0,-32c0,-0.552 0.448,-1 1,-1l22,0c0.552,0 1,0.448 1,1l0,32z"/>
  <path id="svg_29" fill="#333333" d="m34,96c0,0.552 -0.448,1 -1,1l0,0c-0.552,0 -1,-0.448 -1,-1l0,0c0,-0.552 0.448,-1 1,-1l0,0c0.552,0 1,0.448 1,1l0,0z"/>
  <rect id="svg_30" y="62" x="23" width="20" height="4" fill="#CFC5FF"/>
  <rect id="svg_31" y="86" x="88" width="18" height="2" fill="#CFC5FF"/>
  <rect id="svg_32" y="89" x="88" width="18" height="7" fill="#CFC5FF"/>
  <rect id="svg_33" y="68" x="23" width="9" height="11" fill="#CFC5FF"/>
  <rect id="svg_34" y="68" x="34" width="9" height="11" fill="#CFC5FF"/>
  <rect id="svg_35" y="81" x="23" width="9" height="11" fill="#CFC5FF"/>
  <rect id="svg_36" y="81" x="34" width="9" height="11" fill="#CFC5FF"/>
 </g>
</svg>