<svg width="64" height="64" xmlns="http://www.w3.org/2000/svg">

 <g>
  <title>background</title>
  <rect fill="none" id="canvas_background" height="402" width="582" y="-1" x="-1"/>
 </g>
 <g>
  <title>Layer 1</title>
  <circle id="svg_2" r="32" fill="#56aaff" cy="32" cx="32"/>
  <path opacity="0.2" id="svg_5" fill="#231F20" d="m52.872,28.063c-0.31,-0.951 -1.133,-1.645 -2.121,-1.79l-11.327,-1.645l-5.067,-10.263c-0.444,-0.899 -1.356,-1.467 -2.357,-1.467s-1.913,0.568 -2.357,1.467l-5.064,10.263l-11.329,1.645c-0.991,0.145 -1.813,0.838 -2.121,1.79c-0.31,0.951 -0.053,1.995 0.665,2.694l8.197,7.99l-1.934,11.283c-0.168,0.986 0.237,1.982 1.046,2.57c0.455,0.334 0.996,0.502 1.543,0.502c0.418,0 0.838,-0.1 1.222,-0.302l10.132,-5.327l10.132,5.327c0.384,0.202 0.804,0.302 1.222,0.302c0.544,0 1.088,-0.168 1.545,-0.502c0.809,-0.589 1.214,-1.585 1.046,-2.57l-1.935,-11.284l8.197,-7.99c0.715,-0.696 0.973,-1.742 0.665,-2.693z"/>
  <path id="svg_8" fill="#ffff56" d="m52.872,25.946382c-0.31,-0.951 -1.133,-1.645 -2.121,-1.79l-11.327,-1.645l-5.067,-10.263c-0.444,-0.899 -1.356,-1.467 -2.357,-1.467s-1.913,0.568 -2.357,1.467l-5.064,10.263l-11.329,1.645c-0.991,0.145 -1.813,0.838 -2.121,1.79c-0.31,0.951 -0.053,1.995 0.665,2.694l8.197,7.99l-1.934,11.283c-0.168,0.986 0.237,1.982 1.046,2.57c0.455,0.334 0.996,0.502 1.543,0.502c0.418,0 0.838,-0.1 1.222,-0.302l10.132,-5.327l10.132,5.327c0.384,0.202 0.804,0.302 1.222,0.302c0.544,0 1.088,-0.168 1.545,-0.502c0.809,-0.589 1.214,-1.585 1.046,-2.57l-1.935,-11.284l8.197,-7.99c0.715,-0.696 0.973,-1.742 0.665,-2.693z"/>
 </g>
</svg>